<?xml version="1.0" encoding="UTF-8"?><!DOCTYPE svg PUBLIC "-//W3C//DTD SVG 1.1//EN" "http://www.w3.org/Graphics/SVG/1.1/DTD/svg11.dtd"><svg xmlns="http://www.w3.org/2000/svg" xml:space="preserve" width="50" height="50" style="shape-rendering:geometricPrecision; text-rendering:geometricPrecision; image-rendering:optimizeQuality; fill-rule:evenodd; clip-rule:evenodd" viewBox="0 0 50 50" xmlns:xlink="http://www.w3.org/1999/xlink"><path fill="#555555" d="M24.97 16.67l0.07 0.07c0.93,0.92 1.5,2.2 1.5,3.61 0,1.41 -0.57,2.69 -1.49,3.61 -0.43,0.42 -0.92,0.77 -1.46,1.02 -0.13,0.1 -0.23,0.2 -0.29,0.31 -0.09,0.16 -0.12,0.35 -0.08,0.56l0 0.02c0.05,0.26 0.18,0.54 0.38,0.83 0.4,0.57 1.03,1.13 1.77,1.58l0 0 0.02 0c0.09,0.06 0.18,0.11 0.26,0.17 1.26,0.81 2.03,1.96 2.03,3.26 0,1.29 -0.77,2.45 -2.03,3.26 -1.16,0.75 -2.76,1.22 -4.5,1.22 -1.75,0 -3.34,-0.47 -4.51,-1.22 -1.25,-0.81 -2.03,-1.97 -2.03,-3.26 0,-1.3 0.78,-2.45 2.03,-3.26 1.17,-0.76 2.76,-1.22 4.51,-1.22 0.39,0 0.77,0.02 1.14,0.06 -0.23,-0.38 -0.4,-0.78 -0.47,-1.17l-0.01 -0.03c-0.03,-0.22 -0.04,-0.43 -0.02,-0.64 -0.12,0 -0.24,0.01 -0.36,0.01 -1.41,0 -2.68,-0.57 -3.61,-1.5 -0.92,-0.92 -1.5,-2.2 -1.5,-3.61 0,-1.41 0.58,-2.69 1.5,-3.61 0.93,-0.93 2.2,-1.5 3.61,-1.5l6.25 0c0.4,0 0.72,0.32 0.72,0.71 0,0.4 -0.32,0.72 -0.72,0.72l-2.71 0zm3.83 3.65c-0.4,0 -0.72,-0.32 -0.72,-0.71 0,-0.4 0.32,-0.72 0.72,-0.72l2.93 0 0 -2.94c0,-0.39 0.32,-0.71 0.72,-0.71 0.39,0 0.71,0.32 0.71,0.71l0 2.94 2.94 0c0.4,0 0.72,0.32 0.72,0.72 0,0.39 -0.32,0.71 -0.72,0.71l-2.94 0 0 2.94c0,0.39 -0.32,0.71 -0.71,0.71 -0.4,0 -0.72,-0.32 -0.72,-0.71l0 -2.94 -2.93 0zm-3.92 9.32c-0.94,-0.61 -2.26,-0.99 -3.73,-0.99 -1.47,0 -2.79,0.38 -3.73,0.99 -0.85,0.55 -1.38,1.29 -1.38,2.07 0,0.78 0.53,1.51 1.38,2.06 0.94,0.61 2.26,0.99 3.73,0.99 1.47,0 2.79,-0.38 3.73,-0.99 0.85,-0.55 1.38,-1.28 1.38,-2.06 0,-0.78 -0.53,-1.52 -1.38,-2.07zm-0.84 -11.9c-0.67,-0.66 -1.59,-1.07 -2.61,-1.07 -1.01,0 -1.94,0.41 -2.6,1.07 -0.67,0.67 -1.08,1.59 -1.08,2.61 0,1.02 0.41,1.94 1.08,2.6 0.66,0.67 1.59,1.08 2.6,1.08 1.02,0 1.94,-0.41 2.61,-1.08 0.66,-0.66 1.07,-1.58 1.07,-2.6 0,-1.02 -0.41,-1.94 -1.07,-2.61z"/></svg>